<svg id="Layer_1" data-name="Layer 1" xmlns="http://www.w3.org/2000/svg" xmlns:xlink="http://www.w3.org/1999/xlink" viewBox="0 0 700 400"><defs><style>.cls-1{fill:#0fb0a3;}.cls-2{fill:url(#linear-gradient);}.cls-3{fill:url(#linear-gradient-2);}.cls-4{fill:url(#linear-gradient-3);}.cls-5{fill:url(#linear-gradient-4);}.cls-6{fill:url(#linear-gradient-5);}.cls-7{fill:url(#linear-gradient-6);}</style><linearGradient id="linear-gradient" x1="239.71" y1="260.6" x2="298.52" y2="260.6" gradientUnits="userSpaceOnUse"><stop offset="0" stop-color="#0c8acc"/><stop offset="1" stop-color="#0fb0a3"/></linearGradient><linearGradient id="linear-gradient-2" x1="191.34" y1="253.16" x2="239.83" y2="253.16" xlink:href="#linear-gradient"/><linearGradient id="linear-gradient-3" x1="127.57" y1="175.09" x2="239.83" y2="175.09" xlink:href="#linear-gradient"/><linearGradient id="linear-gradient-4" x1="181.16" y1="199.98" x2="352.12" y2="199.98" xlink:href="#linear-gradient"/><linearGradient id="linear-gradient-5" x1="239.87" y1="201.93" x2="289.55" y2="201.93" xlink:href="#linear-gradient"/><linearGradient id="linear-gradient-6" x1="153.26" y1="203.96" x2="359.11" y2="203.96" xlink:href="#linear-gradient"/></defs><path class="cls-1" d="M418.37,161.54h-21l-34.84,100h20.56l6.57-21.24h36.12l6.72,21.24h21.12Zm-23.95,63.21,8.95-28.8c1.67-5.29,4.18-15.4,4.18-15.4h.32s2.34,10.11,4.05,15.4l8.91,28.8Zm127.27,4.65C520.42,239.88,512,247,500.13,247c-16.75,0-27.39-14.65-27.39-35.09,0-19.85,8.81-35.26,27.27-35.26,11.76,0,19.3,6.59,21.12,16.64h20.13c-2.1-19-16.63-33.71-41.25-33.71-29.53,0-48,22.67-48,52.33,0,30.09,20,51.76,48.11,51.76,13.86,0,23.51-4.2,30.37-10.64a35.48,35.48,0,0,0,11-23.62Zm30.49-67.84v100h20.25v-100Z"/><path class="cls-2" d="M292.77,279.7c-3.86,3.85-9.39,5.8-16.39,5.8-10.14,0-22.79-4.09-36.67-11.49a3.1,3.1,0,0,0,.63-.32,3.19,3.19,0,0,0,.64-.32c.64-.32,1.23-.67,1.87-1a3.19,3.19,0,0,1,.64-.32,2.27,2.27,0,0,1,.55-.32c20.65,10.58,37.75,13.17,45.83,5.09,6.6-6.6,6-20.4-1.67-38.1.15-.16.31-.28.47-.44a4.38,4.38,0,0,0,.44-.4c.48-.44.91-.83,1.35-1.27a4.56,4.56,0,0,0,.44-.44,4.79,4.79,0,0,0,.48-.44C300.41,256,300.88,271.58,292.77,279.7Z"/><path class="cls-3" d="M239.83,269.39a2.55,2.55,0,0,1-.56.32c-.2.12-.4.24-.64.36-.63.36-1.27.68-1.91,1l-.55.32c-.2.12-.44.2-.64.32-14.12-8.07-29.32-19.41-44.19-33.13a4,4,0,0,1,.28-.6,1.48,1.48,0,0,1,.23-.52c.24-.55.48-1.15.76-1.71a3.17,3.17,0,0,1,.28-.55,3.66,3.66,0,0,1,.28-.56C209,249.47,225.19,261.32,239.83,269.39Z"/><path class="cls-4" d="M239.83,166.21a3.77,3.77,0,0,1-.4.4,4.56,4.56,0,0,1-.44.44c-.4.39-.83.79-1.23,1.23a4,4,0,0,0-.44.4l-.4.4c-19.77-19.1-40.81-34.25-59.66-43-10.58-4.9-20.13-7.44-27.65-7.44-5.85,0-10.34,1.51-13.36,4.49-7.2,7.24-6.13,22,3.1,41.65,9.31,19.81,25.77,42,46.3,62.57,1.47,1.47,2.94,2.94,4.45,4.33a43.36,43.36,0,0,1-.55,1.12c-.28.56-.52,1.11-.76,1.71a2.16,2.16,0,0,0-.28.52,4.47,4.47,0,0,1-.28.59c-1.83-1.75-3.65-3.54-5.48-5.37-44.67-44.71-66.39-93-49.41-110,8.36-8.35,24.58-7.6,45.63,2.11C198.26,131.29,219.74,146.8,239.83,166.21Z"/><path class="cls-5" d="M346.35,120.27c-16.55-16.55-62.81,3.62-106.52,45.94a3.77,3.77,0,0,1-.4.4,4.56,4.56,0,0,1-.44.44c-.4.39-.83.79-1.23,1.23a4,4,0,0,0-.44.4l-.4.4-.59.59c-21.09,21.08-37,43-46.23,62.05a43.36,43.36,0,0,1-.55,1.12c-.28.56-.52,1.11-.76,1.71a2.16,2.16,0,0,0-.28.52,4.47,4.47,0,0,1-.28.59c-8.63,19.53-9.7,35.64-1.31,44,3.86,3.81,9.31,5.76,16.27,5.76,8.16,0,18.06-2.66,29.4-7.87,2.34-1.08,4.73-2.27,7.12-3.58a3.1,3.1,0,0,0,.63-.32,3.19,3.19,0,0,0,.64-.32c.64-.32,1.23-.67,1.87-1a3.19,3.19,0,0,1,.64-.32,2.27,2.27,0,0,1,.55-.32c14.36-8.19,29.56-19.49,44.16-33,.15-.16.31-.28.47-.44a4.38,4.38,0,0,0,.44-.4c.48-.44.91-.83,1.35-1.27a4.56,4.56,0,0,0,.44-.44,4.79,4.79,0,0,0,.48-.44c1.87-1.75,3.74-3.58,5.57-5.41C341.66,185.58,363.33,137.25,346.35,120.27ZM294,227.39c-1.51,1.51-3,3-4.49,4.41a2.29,2.29,0,0,0-.44.44,2.1,2.1,0,0,0-.44.4c-.44.4-.87.83-1.31,1.27a4.79,4.79,0,0,0-.48.44,1.54,1.54,0,0,0-.44.44c-15.47,14.36-31.54,26.33-46.61,34.6a2.55,2.55,0,0,1-.56.32c-.2.12-.4.24-.64.36-.63.36-1.27.68-1.91,1l-.55.32c-.2.12-.44.2-.64.32-1.35.68-2.7,1.35-4.06,2-19.61,9.23-34.4,10.34-41.64,3.1-7-7.08-6-21,1.51-38.22a4,4,0,0,1,.28-.6,1.48,1.48,0,0,1,.23-.52c.24-.55.48-1.15.76-1.71a3.17,3.17,0,0,1,.28-.55,3.66,3.66,0,0,1,.28-.56c8.91-18.82,25-41,46.06-62,.2-.2.44-.44.64-.6a1.64,1.64,0,0,1,.39-.4,2.29,2.29,0,0,1,.44-.44c.4-.43.8-.83,1.23-1.23l.4-.4.44-.43c31.46-30.39,66.07-50.6,87.15-50.6,5.85,0,10.42,1.59,13.53,4.69,7.24,7.24,6.12,22-3.11,41.65C331,184.63,314.57,206.82,294,227.39Z"/><path class="cls-6" d="M289.55,231.8a2.29,2.29,0,0,0-.44.44,2.1,2.1,0,0,0-.44.4c-.44.4-.87.83-1.31,1.27a4.79,4.79,0,0,0-.48.44,1.54,1.54,0,0,0-.44.44c-9.3-19.77-25.61-41.81-46-62.21l-.59-.6a1.64,1.64,0,0,1,.39-.4,2.29,2.29,0,0,1,.44-.44c.4-.43.8-.83,1.23-1.23l.4-.4.44-.43.6.59C263.69,190,280,212,289.55,231.8Z"/><path class="cls-7" d="M304.63,263.11a9.27,9.27,0,0,0-2.72-4.8,4.49,4.49,0,0,0-.67-.63,9.69,9.69,0,0,0-3.76-1.78h0a5.47,5.47,0,0,0-1.05-.17,4.62,4.62,0,0,0-1-.07,8.26,8.26,0,0,0-2,.24,4,4,0,0,0-.57.16,8.55,8.55,0,0,0-3.25,1.68,9.28,9.28,0,0,0-3.39,5.57,9.78,9.78,0,0,0-.2,1.78,15.69,15.69,0,0,0,.16,1.72,9.49,9.49,0,0,0,4.47,6.41,6,6,0,0,0,.6.33,9.18,9.18,0,0,0,4.2,1,4.15,4.15,0,0,0,1.14-.13h.07a9.35,9.35,0,0,0,8-7.42,9,9,0,0,0,.2-1.88A10,10,0,0,0,304.63,263.11Zm54.28-122.27a9.1,9.1,0,0,0-2.72-4.8,3.73,3.73,0,0,0-.67-.64,9.77,9.77,0,0,0-3.76-1.78h0a6.23,6.23,0,0,0-1-.16,4.76,4.76,0,0,0-1-.07,8.61,8.61,0,0,0-2,.23,4.11,4.11,0,0,0-.57.17,8.38,8.38,0,0,0-3.26,1.68,9.3,9.3,0,0,0-3.39,5.57,9.68,9.68,0,0,0-.2,1.78,13.57,13.57,0,0,0,.17,1.71,9.49,9.49,0,0,0,4.46,6.41,4.66,4.66,0,0,0,.61.34,9.13,9.13,0,0,0,4.19,1,4.06,4.06,0,0,0,1.14-.13h.07a9.34,9.34,0,0,0,8-7.42,8.33,8.33,0,0,0,.2-1.88A9.3,9.3,0,0,0,358.91,140.84Zm-187,63.72a9.16,9.16,0,0,0-2.72-4.8,5.13,5.13,0,0,0-.67-.64,9.61,9.61,0,0,0-3.76-1.77h0a5.5,5.5,0,0,0-1-.17,4.76,4.76,0,0,0-1-.07,8.12,8.12,0,0,0-2,.24,4,4,0,0,0-.57.16,8.52,8.52,0,0,0-3.26,1.68,9.3,9.3,0,0,0-3.39,5.57,9.68,9.68,0,0,0-.2,1.78,13.38,13.38,0,0,0,.17,1.71,9.49,9.49,0,0,0,4.46,6.41,4.56,4.56,0,0,0,.6.34,9.21,9.21,0,0,0,4.2,1,4.1,4.1,0,0,0,1.14-.13h.07a9.35,9.35,0,0,0,8-7.42,9,9,0,0,0,.2-1.88A10,10,0,0,0,171.92,204.56Z"/></svg>