<svg id="Layer_1" data-name="Layer 1" xmlns="http://www.w3.org/2000/svg" xmlns:xlink="http://www.w3.org/1999/xlink" viewBox="0 0 400 400"><defs><style>.cls-1{fill:url(#linear-gradient);}.cls-2{fill:url(#linear-gradient-2);}.cls-3{fill:url(#linear-gradient-3);}</style><linearGradient id="linear-gradient" x1="54.17" y1="200.03" x2="275.6" y2="200.03" gradientUnits="userSpaceOnUse"><stop offset="0" stop-color="#0c8acc"/><stop offset="1" stop-color="#0fb0a3"/></linearGradient><linearGradient id="linear-gradient-2" x1="124.04" y1="199.97" x2="345.53" y2="199.97" xlink:href="#linear-gradient"/><linearGradient id="linear-gradient-3" x1="86.95" y1="205.18" x2="355.35" y2="205.18" xlink:href="#linear-gradient"/></defs><path class="cls-1" d="M247.49,310.74c-29.37,0-76.8-27.05-121.53-71.78C68,181,39.69,118.47,61.54,96.62,72.2,86,93,87,120.17,99.52c26.57,12.26,56.3,34.11,83.71,61.52s49.26,57.14,61.52,83.71c12.52,27.15,13.56,48,2.9,58.63h0C263.31,308.37,256.19,310.74,247.49,310.74ZM82.2,93.18c-7.74,0-13.87,2-18,6.13-20,20,8.9,81.44,64.42,137s116.94,84.42,137,64.42c9.3-9.3,8-29.1-3.67-54.33-12.08-26.18-33.66-55.52-60.76-82.62S144.75,115.06,118.57,103C104.45,96.47,92,93.18,82.2,93.18Z"/><path class="cls-2" d="M152.05,310.68c-8.77,0-15.77-2.43-20.65-7.3C109.56,281.53,137.85,219,195.82,161s120.5-86.26,142.35-64.42S331.72,181,273.75,239c-27.41,27.41-57.14,49.25-83.72,61.51C175.3,307.27,162.44,310.68,152.05,310.68ZM317.3,93c-28,0-75.2,27.17-118.78,70.75-55.52,55.52-84.42,117-64.42,137s81.44-8.9,137-64.42,84.42-116.95,64.42-136.95C331.17,95,325,93,317.3,93Z"/><path class="cls-3" d="M284.31,282.31a11.93,11.93,0,0,0-3.54-6.26,5.38,5.38,0,0,0-.88-.83,12.77,12.77,0,0,0-4.9-2.32h0a7.14,7.14,0,0,0-1.36-.22,7,7,0,0,0-1.31-.08,10.73,10.73,0,0,0-2.63.3,4.15,4.15,0,0,0-.74.22,11,11,0,0,0-4.25,2.19,12.12,12.12,0,0,0-4.42,7.26,12.65,12.65,0,0,0-.26,2.32,17.73,17.73,0,0,0,.22,2.23,12.37,12.37,0,0,0,5.82,8.36,6.25,6.25,0,0,0,.79.44,12,12,0,0,0,5.47,1.27,5.44,5.44,0,0,0,1.49-.18h.08a12.17,12.17,0,0,0,10.46-9.67,11.08,11.08,0,0,0,.27-2.45A12.28,12.28,0,0,0,284.31,282.31Zm70.78-159.43a11.93,11.93,0,0,0-3.54-6.26,5.85,5.85,0,0,0-.88-.83,12.77,12.77,0,0,0-4.9-2.32h0a8,8,0,0,0-1.36-.21,6.23,6.23,0,0,0-1.31-.09,11.23,11.23,0,0,0-2.63.3,5.19,5.19,0,0,0-.74.22,11,11,0,0,0-4.25,2.19,12.11,12.11,0,0,0-4.42,7.27,12.55,12.55,0,0,0-.26,2.32,18.11,18.11,0,0,0,.22,2.23,12.37,12.37,0,0,0,5.82,8.36,7.68,7.68,0,0,0,.79.43,12,12,0,0,0,5.47,1.27,5.44,5.44,0,0,0,1.49-.17h.08a12.2,12.2,0,0,0,10.46-9.68,10.92,10.92,0,0,0,.26-2.44A12.3,12.3,0,0,0,355.09,122.88ZM111.28,206a11.89,11.89,0,0,0-3.54-6.26,5,5,0,0,0-.88-.83,12.63,12.63,0,0,0-4.9-2.32h0a7.14,7.14,0,0,0-1.36-.22,6.23,6.23,0,0,0-1.31-.09,10.74,10.74,0,0,0-2.63.31,4.15,4.15,0,0,0-.74.22A10.82,10.82,0,0,0,91.63,199a12.14,12.14,0,0,0-4.42,7.27,12.65,12.65,0,0,0-.26,2.32,17.73,17.73,0,0,0,.22,2.23A12.37,12.37,0,0,0,93,219.14a6.76,6.76,0,0,0,.79.43,11.88,11.88,0,0,0,5.47,1.27,5.44,5.44,0,0,0,1.49-.17h.08A12.19,12.19,0,0,0,111.28,211a11.08,11.08,0,0,0,.26-2.45A12.21,12.21,0,0,0,111.28,206Z"/></svg>