<?xml version="1.0" encoding="utf-8"?>
<!-- Generator: Adobe Illustrator 23.0.0, SVG Export Plug-In . SVG Version: 6.00 Build 0)  -->
<svg version="1.1" id="Layer_1" xmlns="http://www.w3.org/2000/svg" xmlns:xlink="http://www.w3.org/1999/xlink" x="0px" y="0px"
	 viewBox="0 0 277 111.6" style="enable-background:new 0 0 277 111.6;" xml:space="preserve">
<style type="text/css">
	.st0{fill:#0FB0A3;}
	.st1{fill:url(#SVGID_1_);}
	.st2{fill:url(#SVGID_2_);}
	.st3{fill:url(#SVGID_3_);}
	.st4{fill:url(#SVGID_4_);}
	.st5{fill:url(#SVGID_5_);}
	.st6{fill:url(#SVGID_6_);}
</style>
<path class="st0" d="M174.5,35.5h-11.1l-18.3,52.6h10.8l3.5-11.2h19l3.5,11.2H193L174.5,35.5z M161.9,68.8l4.7-15.2
	c0.9-2.8,2.2-8.1,2.2-8.1h0.2c0,0,1.2,5.3,2.1,8.1l4.7,15.2H161.9z M228.9,71.3c-0.7,5.5-5.1,9.3-11.3,9.3
	c-8.8,0-14.4-7.7-14.4-18.5c0-10.4,4.6-18.6,14.4-18.6c6.2,0,10.2,3.5,11.1,8.8h10.6c-1.1-10-8.8-17.7-21.7-17.7
	c-15.5,0-25.3,11.9-25.3,27.5c0,15.8,10.5,27.2,25.3,27.2c7.3,0,12.4-2.2,16-5.6c3.4-3.3,5.5-7.7,5.8-12.4H228.9z M244.9,35.5v52.6
	h10.7V35.5H244.9z"/>
<linearGradient id="SVGID_1_" gradientUnits="userSpaceOnUse" x1="80.4274" y1="486.1573" x2="111.3823" y2="486.1573" gradientTransform="matrix(1 0 0 1 0 -398.44)">
	<stop  offset="0" style="stop-color:#0C8ACC"/>
	<stop  offset="1" style="stop-color:#0FB0A3"/>
</linearGradient>
<path class="st1" d="M108.4,97.7c-2,2-4.9,3.1-8.6,3.1c-5.3,0-12-2.2-19.3-6c0.1,0,0.2-0.1,0.3-0.2c0.1,0,0.2-0.1,0.3-0.2
	c0.3-0.2,0.6-0.4,1-0.5c0.1-0.1,0.2-0.1,0.3-0.2c0.1-0.1,0.2-0.1,0.3-0.2c10.9,5.6,19.9,6.9,24.1,2.7c3.5-3.5,3.2-10.7-0.9-20.1
	c0.1-0.1,0.2-0.1,0.2-0.2c0.1-0.1,0.2-0.1,0.2-0.2c0.3-0.2,0.5-0.4,0.7-0.7c0.1-0.1,0.2-0.1,0.2-0.2c0.1-0.1,0.2-0.1,0.3-0.2
	C112.4,85.3,112.6,93.5,108.4,97.7z"/>
<linearGradient id="SVGID_2_" gradientUnits="userSpaceOnUse" x1="54.98" y1="482.3073" x2="80.48" y2="482.3073" gradientTransform="matrix(1 0 0 1 0 -398.44)">
	<stop  offset="0" style="stop-color:#0C8ACC"/>
	<stop  offset="1" style="stop-color:#0FB0A3"/>
</linearGradient>
<path class="st2" d="M80.5,92.3c-0.1,0.1-0.2,0.1-0.3,0.2c-0.1,0.1-0.2,0.1-0.3,0.2c-0.3,0.2-0.7,0.4-1,0.5l-0.3,0.2
	c-0.1,0.1-0.2,0.1-0.3,0.2C70.9,89.4,62.9,83.4,55,76.2c0-0.1,0.1-0.2,0.1-0.3c0-0.1,0.1-0.2,0.1-0.3c0.1-0.3,0.3-0.6,0.4-0.9
	c0-0.1,0.1-0.2,0.1-0.3c0-0.1,0.1-0.2,0.1-0.3C64.3,81.8,72.8,88.1,80.5,92.3z"/>
<linearGradient id="SVGID_3_" gradientUnits="userSpaceOnUse" x1="21.42" y1="441.09" x2="80.48" y2="441.09" gradientTransform="matrix(1 0 0 1 0 -398.44)">
	<stop  offset="0" style="stop-color:#0C8ACC"/>
	<stop  offset="1" style="stop-color:#0FB0A3"/>
</linearGradient>
<path class="st3" d="M80.5,38c-0.1,0.1-0.1,0.1-0.2,0.2c-0.1,0.1-0.1,0.2-0.2,0.2c-0.2,0.2-0.4,0.4-0.6,0.6
	c-0.1,0.1-0.2,0.1-0.2,0.2l-0.2,0.2c-10.5-9.9-21.6-17.9-31.5-22.5C42,14.3,37,13,33,13c-3.1,0-5.4,0.8-7,2.4
	c-3.8,3.8-3.2,11.6,1.6,21.9C32.5,47.7,41.2,59.4,52,70.2c0.8,0.8,1.5,1.5,2.3,2.3c-0.1,0.2-0.2,0.4-0.3,0.6
	c-0.1,0.3-0.3,0.6-0.4,0.9c0,0-0.1,0.1-0.1,0.2s-0.1,0.2-0.1,0.3c-1-0.9-1.9-1.9-2.9-2.8c-23.5-23.5-35-48.9-26-57.9
	c4.4-4.4,12.9-4,24,1.1C58.6,19.6,69.9,27.8,80.5,38z"/>
<linearGradient id="SVGID_4_" gradientUnits="userSpaceOnUse" x1="49.6748" y1="454.24" x2="139.5968" y2="454.24" gradientTransform="matrix(1 0 0 1 0 -398.44)">
	<stop  offset="0" style="stop-color:#0C8ACC"/>
	<stop  offset="1" style="stop-color:#0FB0A3"/>
</linearGradient>
<path class="st4" d="M136.6,13.8c-8.7-8.7-33.1,1.9-56.1,24.2c-0.1,0.1-0.1,0.1-0.2,0.2c-0.1,0.1-0.1,0.2-0.2,0.2
	c-0.2,0.2-0.4,0.4-0.6,0.6c-0.1,0.1-0.2,0.1-0.2,0.2l-0.2,0.2l-0.3,0.3C67.6,50.9,59.2,62.5,54.3,72.5c-0.1,0.2-0.2,0.4-0.3,0.6
	c-0.1,0.3-0.3,0.6-0.4,0.9c-0.1,0.1-0.1,0.2-0.1,0.3c0,0.1-0.1,0.2-0.1,0.3c-4.5,10.3-5.1,18.8-0.7,23.2c2,2,4.9,3,8.6,3
	c4.3,0,9.5-1.4,15.5-4.1c1.2-0.6,2.5-1.2,3.7-1.9c0.1,0,0.2-0.1,0.3-0.2c0.1,0,0.2-0.1,0.3-0.2c0.3-0.2,0.6-0.4,1-0.5
	c0.1-0.1,0.2-0.1,0.3-0.2c0.1-0.1,0.2-0.1,0.3-0.2c7.6-4.3,15.6-10.3,23.2-17.4c0.1-0.1,0.2-0.1,0.2-0.2c0.1-0.1,0.2-0.1,0.2-0.2
	c0.3-0.2,0.5-0.4,0.7-0.7c0.1-0.1,0.2-0.1,0.2-0.2c0.1-0.1,0.2-0.1,0.3-0.2c1-0.9,2-1.9,2.9-2.8C134.1,48.2,145.5,22.8,136.6,13.8z
	 M109,70.2c-0.8,0.8-1.6,1.6-2.4,2.3c-0.1,0.1-0.2,0.1-0.2,0.2c-0.1,0.1-0.2,0.1-0.2,0.2c-0.2,0.2-0.5,0.4-0.7,0.7
	c-0.1,0.1-0.2,0.1-0.3,0.2c-0.1,0.1-0.2,0.1-0.2,0.2c-8.1,7.7-16.6,14-24.5,18.3c-0.1,0.1-0.2,0.1-0.3,0.2c-0.1,0.1-0.2,0.1-0.3,0.2
	c-0.3,0.2-0.7,0.4-1,0.5l-0.3,0.2c-0.1,0.1-0.2,0.1-0.3,0.2c-0.7,0.4-1.4,0.7-2.1,1.1c-10.3,4.9-18.1,5.4-21.9,1.6
	c-3.7-3.7-3.2-11.1,0.8-20.1c0-0.1,0.1-0.2,0.1-0.3c0-0.1,0.1-0.2,0.1-0.3c0.1-0.3,0.3-0.6,0.4-0.9c0-0.1,0.1-0.2,0.1-0.3
	c0-0.1,0.1-0.2,0.1-0.3c4.7-9.9,13.2-21.6,24.2-32.6c0.1-0.1,0.2-0.2,0.3-0.3c0.1-0.1,0.1-0.2,0.2-0.2c0.1-0.1,0.1-0.2,0.2-0.2
	c0.2-0.2,0.4-0.4,0.6-0.6l0.2-0.2l0.2-0.2c16.6-16,34.8-26.6,45.9-26.6c3.1,0,5.5,0.8,7.1,2.5c3.8,3.8,3.2,11.6-1.6,21.9
	C128.5,47.7,119.8,59.4,109,70.2z"/>
<linearGradient id="SVGID_5_" gradientUnits="userSpaceOnUse" x1="80.48" y1="455.2574" x2="106.6393" y2="455.2574" gradientTransform="matrix(1 0 0 1 0 -398.44)">
	<stop  offset="0" style="stop-color:#0C8ACC"/>
	<stop  offset="1" style="stop-color:#0FB0A3"/>
</linearGradient>
<path class="st5" d="M106.7,72.5c-0.1,0.1-0.2,0.1-0.2,0.2c-0.1,0.1-0.2,0.1-0.2,0.2c-0.2,0.2-0.5,0.4-0.7,0.7
	c-0.1,0.1-0.2,0.1-0.3,0.2c-0.1,0.1-0.2,0.1-0.2,0.2c-4.9-10.4-13.5-22-24.2-32.7L80.5,41c0.1-0.1,0.1-0.2,0.2-0.2
	c0.1-0.1,0.1-0.2,0.2-0.2c0.2-0.2,0.4-0.4,0.6-0.6l0.2-0.2l0.2-0.2l0.3,0.3C93.1,50.5,101.7,62.1,106.7,72.5z"/>
<linearGradient id="SVGID_6_" gradientUnits="userSpaceOnUse" x1="34.98" y1="456.4073" x2="143.2551" y2="456.4073" gradientTransform="matrix(1 0 0 1 0 -398.44)">
	<stop  offset="0" style="stop-color:#0C8ACC"/>
	<stop  offset="1" style="stop-color:#0FB0A3"/>
</linearGradient>
<path class="st6" d="M114.6,89c-0.2-1-0.7-1.8-1.4-2.5c-0.1-0.1-0.2-0.2-0.4-0.3c-0.6-0.5-1.3-0.8-2-0.9l0,0c-0.2,0-0.4-0.1-0.6-0.1
	s-0.4,0-0.5,0c-0.4,0-0.7,0-1.1,0.1c-0.1,0-0.2,0-0.3,0.1c-0.6,0.2-1.2,0.5-1.7,0.9c-0.9,0.7-1.6,1.8-1.8,2.9
	c-0.1,0.3-0.1,0.6-0.1,0.9s0,0.6,0.1,0.9c0.3,1.4,1.1,2.6,2.4,3.4c0.1,0.1,0.2,0.1,0.3,0.2c0.7,0.3,1.4,0.5,2.2,0.5
	c0.2,0,0.4,0,0.6-0.1l0,0c2.1-0.3,3.8-1.8,4.2-3.9c0.1-0.3,0.1-0.7,0.1-1C114.7,89.7,114.7,89.3,114.6,89z M143.2,24.6
	c-0.2-1-0.7-1.9-1.4-2.5c-0.1-0.1-0.2-0.2-0.4-0.3c-0.6-0.5-1.3-0.8-2-0.9l0,0c-0.2,0-0.3-0.1-0.5-0.1s-0.4,0-0.5,0
	c-0.4,0-0.7,0-1.1,0.1c-0.1,0-0.2,0.1-0.3,0.1c-0.6,0.2-1.2,0.5-1.7,0.9c-0.9,0.7-1.6,1.8-1.8,2.9c-0.1,0.3-0.1,0.6-0.1,0.9
	s0,0.6,0.1,0.9c0.3,1.4,1.1,2.6,2.3,3.4c0.1,0.1,0.2,0.1,0.3,0.2c0.7,0.3,1.4,0.5,2.2,0.5c0.2,0,0.4,0,0.6-0.1l0,0
	c2.1-0.3,3.8-1.8,4.2-3.9c0.1-0.3,0.1-0.7,0.1-1C143.3,25.3,143.3,25,143.2,24.6z M44.8,58.2c-0.2-1-0.7-1.9-1.4-2.5
	c-0.1-0.1-0.2-0.2-0.4-0.3c-0.6-0.5-1.3-0.8-2-0.9l0,0c-0.2,0-0.3-0.1-0.5-0.1s-0.4,0-0.5,0c-0.4,0-0.7,0-1.1,0.1
	c-0.1,0-0.2,0-0.3,0.1c-0.6,0.2-1.2,0.5-1.7,0.9c-0.9,0.7-1.6,1.8-1.8,2.9C35,58.7,35,59,35,59.3c0,0.3,0,0.6,0.1,0.9
	c0.3,1.4,1.1,2.6,2.3,3.4c0.1,0.1,0.2,0.1,0.3,0.2c0.7,0.3,1.4,0.5,2.2,0.5c0.2,0,0.4,0,0.6-0.1l0,0c2.1-0.3,3.8-1.8,4.2-3.9
	c0.1-0.3,0.1-0.7,0.1-1C44.9,58.9,44.8,58.5,44.8,58.2L44.8,58.2z"/>
</svg>
