<svg id="Layer_1" data-name="Layer 1" xmlns="http://www.w3.org/2000/svg" xmlns:xlink="http://www.w3.org/1999/xlink" viewBox="0 0 1000 400"><defs><style>.cls-1{fill:#0fb0a3;}.cls-2{fill:url(#linear-gradient);}.cls-3{fill:url(#linear-gradient-2);}.cls-4{fill:url(#linear-gradient-3);}</style><linearGradient id="linear-gradient" x1="108.59" y1="200.03" x2="330.02" y2="200.03" gradientUnits="userSpaceOnUse"><stop offset="0" stop-color="#0c8acc"/><stop offset="1" stop-color="#0fb0a3"/></linearGradient><linearGradient id="linear-gradient-2" x1="178.45" y1="199.97" x2="399.95" y2="199.97" xlink:href="#linear-gradient"/><linearGradient id="linear-gradient-3" x1="141.36" y1="205.18" x2="409.77" y2="205.18" xlink:href="#linear-gradient"/></defs><path class="cls-1" d="M451,100.64h30.09V107H469.83v31h-7.59V107H451Z"/><path class="cls-1" d="M491.44,114.72h.16a8.53,8.53,0,0,1,7.79-4.24c5.55,0,9.27,4.19,9.27,10v17.53h-7.12V121.58c0-2.88-1.67-4.92-4.66-4.92s-5.44,2.51-5.44,6.17v15.23h-7.12V100.64h7.12Z"/><path class="cls-1" d="M511.74,124.61c0-8,5.39-14.13,13.24-14.13,8.64,0,13.24,6.6,13.24,16.17H518.76c.52,4.14,2.82,6.7,6.85,6.7,2.78,0,4.4-1.26,5.18-3.29h7c-1,4.76-5.24,8.79-12.15,8.79C516.77,138.85,511.74,132.62,511.74,124.61Zm7.12-2.88h11.93c-.21-3.4-2.46-5.75-5.7-5.75C521.32,116,519.49,118.23,518.86,121.73Z"/><path class="cls-1" d="M561.19,100.64H569l13.19,37.42h-7.9l-2.51-8h-13.5l-2.47,8h-7.69ZM560.1,124.3H570l-3.35-10.78c-.63-2-1.52-5.76-1.52-5.76H565s-.95,3.77-1.57,5.76Z"/><path class="cls-1" d="M584.89,100.64H592v37.42h-7.13Z"/><path class="cls-1" d="M596.82,100.64H604v37.42h-7.13Z"/><path class="cls-1" d="M608.65,100.64h7.12V107h-7.12Zm0,10.58h7.12v26.84h-7.12Z"/><path class="cls-1" d="M636.44,135.08h-.11c-1.36,2-3.29,3.61-7.9,3.61-5.49,0-9.37-2.88-9.37-8.21,0-5.92,4.82-7.8,10.78-8.64,4.45-.63,6.49-1,6.49-3s-1.51-3.19-4.5-3.19c-3.35,0-5,1.2-5.18,3.77h-6.33c.21-4.71,3.72-8.84,11.56-8.84,8.06,0,11.31,3.6,11.31,9.88v13.67c0,2,.31,3.24.94,3.71v.26h-6.85A7.13,7.13,0,0,1,636.44,135.08Zm0-6.49v-4a20,20,0,0,1-5,1.57c-3.72.83-5.55,1.68-5.55,4.19s1.68,3.4,4.19,3.4C634.24,133.72,636.49,131.21,636.49,128.59Z"/><path class="cls-1" d="M654.65,114.88h.15a8.73,8.73,0,0,1,8-4.4c5.54,0,9.26,4.19,9.26,10v17.53H664.9V121.58c0-2.88-1.67-4.92-4.66-4.92s-5.44,2.51-5.44,6.17v15.23h-7.12V111.22h7Z"/><path class="cls-1" d="M675.11,124.66c0-8,5.23-14.18,13.39-14.18,7,0,11.26,4,12.2,9.84h-7a4.9,4.9,0,0,0-4.91-4.13c-4.29,0-6.49,3.3-6.49,8.47s2,8.48,6.38,8.48a5,5,0,0,0,5.39-4.55H701c-.47,5.71-4.92,10.26-12.09,10.26C680.39,138.85,675.11,132.67,675.11,124.66Z"/><path class="cls-1" d="M702.73,124.61c0-8,5.4-14.13,13.25-14.13,8.63,0,13.24,6.6,13.24,16.17H709.75c.52,4.14,2.82,6.7,6.85,6.7,2.78,0,4.4-1.26,5.18-3.29h7c-1,4.76-5.24,8.79-12.14,8.79C707.76,138.85,702.73,132.62,702.73,124.61Zm7.12-2.88h11.93c-.2-3.4-2.45-5.75-5.7-5.75C712.31,116,710.48,118.23,709.85,121.73Z"/><path class="cls-1" d="M739.73,111.22h3.67v-2.41c0-6.54,5.07-8.85,11.93-8.11v5.49c-3.35-.16-4.82.26-4.82,3v2h4.82v4.91h-4.82v21.93H743.4V116.13h-3.67Z"/><path class="cls-1" d="M756.47,124.66c0-8,5.71-14.18,14-14.18s14,6.18,14,14.18-5.71,14.19-14,14.19S756.47,132.67,756.47,124.66Zm20.83,0c0-5.23-2.45-8.79-6.8-8.79s-6.8,3.56-6.8,8.79,2.4,8.74,6.8,8.74S777.3,129.9,777.3,124.66Z"/><path class="cls-1" d="M794.67,115.51h.16c1.62-3,3.46-4.61,6.6-4.61a4.8,4.8,0,0,1,1.67.21v6.23h-.16c-4.65-.48-8,2-8,7.64v13.08h-7.12V111.22h6.85Z"/><path class="cls-1" d="M831,135.08h-.1c-1.36,2-3.3,3.61-7.91,3.61-5.49,0-9.36-2.88-9.36-8.21,0-5.92,4.81-7.8,10.78-8.64,4.45-.63,6.49-1,6.49-3s-1.52-3.19-4.5-3.19c-3.35,0-5,1.2-5.18,3.77h-6.34c.21-4.71,3.72-8.84,11.57-8.84,8.06,0,11.3,3.6,11.3,9.88v13.67c0,2,.32,3.24,1,3.71v.26h-6.86A7.29,7.29,0,0,1,831,135.08Zm.05-6.49v-4a19.91,19.91,0,0,1-5,1.57c-3.71.83-5.54,1.68-5.54,4.19s1.67,3.4,4.18,3.4C828.85,133.72,831.09,131.21,831.09,128.59Z"/><path class="cls-1" d="M452.33,189.91c0-20.18,12.56-35.59,32.64-35.59,16.75,0,26.65,10,28.08,22.93H499.34c-1.23-6.85-6.37-11.32-14.37-11.32-12.56,0-18.55,10.46-18.55,24,0,13.89,7.23,23.88,18.65,23.88,8.09,0,13.8-4.85,14.65-12h13.52a24.11,24.11,0,0,1-7.52,16.09c-4.66,4.37-11.23,7.23-20.65,7.23C465.94,225.12,452.33,210.37,452.33,189.91Z"/><path class="cls-1" d="M517.4,199.33c0-14.56,10.38-25.79,25.51-25.79s25.5,11.23,25.5,25.79-10.37,25.79-25.5,25.79S517.4,213.89,517.4,199.33Zm37.88,0c0-9.52-4.48-16-12.37-16s-12.37,6.47-12.37,16,4.38,15.89,12.37,15.89S555.28,208.85,555.28,199.33Z"/><path class="cls-1" d="M587.05,181.53h.29c3.33-5.23,7.8-8,14.46-8,10.09,0,16.84,7.61,16.84,18.27v31.88H605.7v-30c0-5.23-3-8.94-8.47-8.94-5.71,0-9.89,4.57-9.89,11.23v27.69H574.4V174.87h12.65Z"/><path class="cls-1" d="M623.58,207.89h12c.86,5.62,4.86,8.09,10.66,8.09s8.95-2.19,8.95-5.61c0-4.66-6.19-5.14-12.85-6.48-8.76-1.7-17.32-4.08-17.32-14.74s8.76-15.61,19.89-15.61c12.85,0,20,6.37,20.93,16.18h-11.7c-.57-5.23-3.9-7.14-9.42-7.14-5,0-8.38,1.91-8.38,5.43,0,4.18,6.48,4.56,13.42,6,8.19,1.71,17.23,4,17.23,15.41,0,9.81-8.38,15.71-20.56,15.71C632.24,225.12,624.34,218.27,623.58,207.89Z"/><path class="cls-1" d="M670.86,199.33c0-14.56,9.52-25.79,24.37-25.79,12.66,0,20.46,7.33,22.17,17.89H704.74a8.94,8.94,0,0,0-8.94-7.52c-7.8,0-11.8,6-11.8,15.42,0,9.23,3.71,15.42,11.61,15.42,5.23,0,8.94-2.76,9.8-8.28h12.47c-.86,10.37-9,18.65-22,18.65C680.48,225.12,670.86,213.89,670.86,199.33Z"/><path class="cls-1" d="M723.48,155.65h12.94v11.61H723.48Zm0,19.22h12.94v48.82H723.48Z"/><path class="cls-1" d="M742.41,199.33c0-14.56,10.37-25.79,25.5-25.79s25.51,11.23,25.51,25.79-10.37,25.79-25.51,25.79S742.41,213.89,742.41,199.33Zm37.88,0c0-9.52-4.48-16-12.38-16s-12.37,6.47-12.37,16,4.38,15.89,12.37,15.89S780.29,208.85,780.29,199.33Z"/><path class="cls-1" d="M830.24,223.69V218H830c-3.33,4.47-7.14,7-14,7-10.85,0-16.94-7-16.94-17.6V174.87h12.85v30.36c0,5.71,2.57,8.85,8.09,8.85,6.09,0,9.8-4.57,9.8-11V174.87H842.7v48.82Z"/><path class="cls-1" d="M848,207.89h12c.85,5.62,4.85,8.09,10.66,8.09s8.94-2.19,8.94-5.61c0-4.66-6.19-5.14-12.85-6.48-8.75-1.7-17.32-4.08-17.32-14.74s8.76-15.61,19.9-15.61c12.84,0,20,6.37,20.93,16.18h-11.7c-.57-5.23-3.9-7.14-9.42-7.14-5,0-8.38,1.91-8.38,5.43,0,4.18,6.47,4.56,13.42,6,8.18,1.71,17.22,4,17.22,15.41,0,9.81-8.37,15.71-20.55,15.71C856.68,225.12,848.78,218.27,848,207.89Z"/><path class="cls-1" d="M455.38,241.27h13.8v68h-13.8Z"/><path class="cls-1" d="M491.34,267.16h.29c3.33-5.23,7.8-8,14.46-8,10.09,0,16.85,7.61,16.85,18.26v31.89H510v-30c0-5.23-3-8.94-8.47-8.94-5.7,0-9.89,4.56-9.89,11.22v27.7H478.69V260.5h12.65Z"/><path class="cls-1" d="M527.11,260.5h6.76V245.27h12.66V260.5h8.37v8.56h-8.37V295c0,3.61,2,4.85,4.85,4.85,1.62,0,3.81-.1,3.81-.1v9.52s-3,.19-8.09.19c-6.28,0-13.23-2.47-13.23-11.7V269.06h-6.76Z"/><path class="cls-1" d="M558.7,284.86c0-14.46,9.8-25.69,24.08-25.69,15.69,0,24.07,12,24.07,29.4h-35.4c.95,7.52,5.14,12.18,12.46,12.18,5.05,0,8-2.28,9.42-6h12.76c-1.81,8.66-9.52,16-22.08,16C567.83,310.74,558.7,299.42,558.7,284.86Zm12.94-5.23h21.69c-.38-6.19-4.46-10.47-10.37-10.47C576.11,269.16,572.78,273.25,571.64,279.63Z"/><path class="cls-1" d="M625.3,268.3h.28c2.95-5.52,6.29-8.37,12-8.37a8.37,8.37,0,0,1,3,.38v11.32h-.29c-8.46-.85-14.56,3.62-14.56,13.9v23.79H612.83V260.5H625.3Z"/><path class="cls-1" d="M658.88,267.16h.29c3.33-5.23,7.8-8,14.46-8,10.09,0,16.85,7.61,16.85,18.26v31.89H677.54v-30c0-5.23-3-8.94-8.47-8.94-5.71,0-9.9,4.56-9.9,11.22v27.7H646.23V260.5h12.65Z"/><path class="cls-1" d="M696.08,284.86c0-14.46,9.8-25.69,24.08-25.69,15.7,0,24.07,12,24.07,29.4h-35.4c1,7.52,5.14,12.18,12.47,12.18,5,0,8-2.28,9.42-6h12.75c-1.81,8.66-9.51,16-22.08,16C705.21,310.74,696.08,299.42,696.08,284.86ZM709,279.63h21.7c-.38-6.19-4.47-10.47-10.38-10.47C713.5,269.16,710.17,273.25,709,279.63Z"/><path class="cls-1" d="M746.41,260.5h6.76V245.27h12.65V260.5h8.38v8.56h-8.38V295c0,3.61,2,4.85,4.86,4.85,1.62,0,3.8-.1,3.8-.1v9.52s-3,.19-8.08.19c-6.28,0-13.23-2.47-13.23-11.7V269.06h-6.76Z"/><path class="cls-2" d="M301.91,310.74c-29.38,0-76.81-27.05-121.54-71.78C122.4,181,94.11,118.47,116,96.62,126.61,86,147.43,87,174.58,99.52c26.58,12.26,56.31,34.11,83.71,61.52s49.26,57.14,61.52,83.71c12.53,27.15,13.56,48,2.91,58.63h0C317.72,308.37,310.6,310.74,301.91,310.74ZM136.61,93.18c-7.73,0-13.86,2-18,6.13-20,20,8.9,81.44,64.42,137S300,320.68,320,300.68c9.3-9.3,8-29.1-3.67-54.33-12.08-26.18-33.65-55.52-60.75-82.62S199.16,115.06,173,103C158.87,96.47,146.44,93.18,136.61,93.18Z"/><path class="cls-3" d="M206.46,310.68c-8.76,0-15.77-2.43-20.64-7.3C164,281.53,192.27,219,250.24,161s120.5-86.26,142.34-64.42S386.13,181,328.16,239c-27.41,27.41-57.14,49.25-83.71,61.51C229.72,307.27,216.85,310.68,206.46,310.68ZM371.71,93c-28,0-75.2,27.17-118.78,70.75-55.52,55.52-84.41,117-64.42,137s81.44-8.9,137-64.42,84.42-116.95,64.42-136.95C385.59,95,379.37,93,371.71,93Z"/><path class="cls-4" d="M338.73,282.31a12,12,0,0,0-3.55-6.26,5.74,5.74,0,0,0-.87-.83,12.84,12.84,0,0,0-4.9-2.32h-.05a7.14,7.14,0,0,0-1.36-.22,6.94,6.94,0,0,0-1.31-.08,10.65,10.65,0,0,0-2.62.3,4,4,0,0,0-.75.22,10.94,10.94,0,0,0-4.24,2.19,12.12,12.12,0,0,0-4.42,7.26,12.65,12.65,0,0,0-.26,2.32,19.84,19.84,0,0,0,.21,2.23,12.43,12.43,0,0,0,5.82,8.36,7,7,0,0,0,.79.44,12,12,0,0,0,5.47,1.27,5.39,5.39,0,0,0,1.49-.18h.09a12.18,12.18,0,0,0,10.46-9.67,11.71,11.71,0,0,0,.26-2.45A13,13,0,0,0,338.73,282.31Zm70.78-159.43a12,12,0,0,0-3.55-6.26,6.28,6.28,0,0,0-.87-.83,12.91,12.91,0,0,0-4.9-2.32h-.05a8,8,0,0,0-1.36-.21,6.18,6.18,0,0,0-1.31-.09,11.15,11.15,0,0,0-2.62.3,5,5,0,0,0-.75.22,10.94,10.94,0,0,0-4.24,2.19,12.11,12.11,0,0,0-4.42,7.27,12.52,12.52,0,0,0-.27,2.32,20.29,20.29,0,0,0,.22,2.23,12.4,12.4,0,0,0,5.82,8.36,8.89,8.89,0,0,0,.79.43,12,12,0,0,0,5.47,1.27,5.4,5.4,0,0,0,1.49-.17h.09a12.2,12.2,0,0,0,10.46-9.68,11.54,11.54,0,0,0,.26-2.44A13,13,0,0,0,409.51,122.88ZM165.69,206a11.89,11.89,0,0,0-3.54-6.26,5,5,0,0,0-.88-.83,12.63,12.63,0,0,0-4.9-2.32h0a7.14,7.14,0,0,0-1.36-.22,6.18,6.18,0,0,0-1.31-.09,10.66,10.66,0,0,0-2.62.31,4,4,0,0,0-.75.22,10.78,10.78,0,0,0-4.24,2.18,12.09,12.09,0,0,0-4.42,7.27,12.62,12.62,0,0,0-.27,2.32,19.81,19.81,0,0,0,.22,2.23,12.4,12.4,0,0,0,5.82,8.36,8.89,8.89,0,0,0,.79.43,11.88,11.88,0,0,0,5.47,1.27,5.4,5.4,0,0,0,1.49-.17h.09A12.18,12.18,0,0,0,165.69,211a11.08,11.08,0,0,0,.27-2.45A12.21,12.21,0,0,0,165.69,206Z"/></svg>